<?xml version="1.0" standalone="no"?>
<!DOCTYPE svg PUBLIC "-//W3C//DTD SVG 20010904//EN"
 "http://www.w3.org/TR/2001/REC-SVG-20010904/DTD/svg10.dtd">
<svg version="1.0" xmlns="http://www.w3.org/2000/svg"
 width="700.000000pt" height="700.000000pt" viewBox="0 0 700.000000 700.000000"
 preserveAspectRatio="xMidYMid meet">
<metadata>
Created by potrace 1.14, written by Peter Selinger 2001-2017
</metadata>
<g transform="translate(0.000000,700.000000) scale(0.100000,-0.100000)"
fill="#000000" stroke="none">
<path d="M3808 5575 c-2 -2 -48 -5 -103 -9 -55 -3 -127 -10 -160 -16 -33 -6
-73 -13 -90 -16 -16 -3 -57 -12 -90 -21 -33 -8 -70 -17 -81 -19 -137 -25 -575
-163 -769 -242 -531 -215 -1038 -480 -1335 -697 -215 -157 -360 -313 -423
-455 -13 -31 -20 -69 -21 -125 -1 -70 3 -87 29 -139 61 -120 263 -256 478
-320 99 -30 201 -56 236 -61 14 -2 76 -11 136 -19 356 -53 773 2 1165 153 78
31 81 32 234 106 234 114 407 229 547 365 80 78 179 211 179 241 0 19 -25 49
-41 49 -5 0 -41 -29 -80 -66 -98 -89 -255 -191 -423 -273 -126 -62 -284 -132
-311 -138 -5 -1 -46 -16 -90 -32 -170 -66 -437 -133 -675 -172 -101 -16 -182
-22 -325 -23 -265 -1 -375 13 -564 75 -204 67 -318 186 -313 327 4 99 143 253
385 425 356 253 795 460 1520 716 220 78 302 102 447 131 128 25 206 34 330
34 365 1 532 -97 607 -358 23 -80 32 -233 18 -311 -38 -210 -73 -322 -185
-590 -61 -145 -253 -526 -317 -627 -12 -21 -23 -40 -23 -42 0 -16 -415 -713
-657 -1103 -63 -100 -68 -116 -52 -154 23 -57 93 -70 136 -26 35 36 352 490
538 772 146 220 261 402 334 528 177 307 379 575 601 797 212 213 391 330 511
336 71 4 103 -18 120 -79 10 -38 7 -137 -6 -192 -2 -11 -9 -40 -15 -65 -48
-203 -223 -587 -374 -817 -79 -122 -272 -434 -329 -533 -55 -97 -36 -196 47
-245 71 -41 149 -31 203 27 13 13 60 98 106 189 75 147 172 328 197 369 5 8
49 80 96 160 134 224 384 597 423 630 3 3 24 28 46 55 64 81 186 199 247 240
75 49 138 58 173 25 44 -41 53 -103 31 -208 -22 -104 -194 -576 -278 -762 -11
-25 -23 -54 -28 -65 -19 -47 -108 -249 -148 -335 -30 -66 -218 -487 -254 -570
-10 -25 -23 -54 -28 -65 -37 -79 -117 -318 -126 -375 -3 -19 -8 -38 -10 -41
-13 -22 -21 -213 -10 -272 20 -119 105 -212 205 -224 48 -5 50 -4 57 21 9 37
0 53 -35 61 -70 15 -121 102 -116 195 11 204 75 357 404 980 117 221 348 686
380 765 18 44 38 94 46 110 34 78 110 343 121 424 3 25 9 50 12 55 3 5 6 60 7
123 4 170 -30 265 -118 337 -175 140 -386 72 -669 -215 -53 -54 -99 -95 -101
-91 -3 4 -3 16 -1 27 29 165 21 304 -21 385 -37 72 -118 125 -204 133 -169 15
-368 -104 -643 -386 -59 -61 -111 -108 -114 -105 -3 4 3 33 14 65 43 123 77
266 90 373 8 73 8 243 -1 305 -17 115 -73 252 -139 339 -88 117 -226 210 -348
235 -49 10 -206 21 -212 16z"/>
</g>
</svg>
