<svg width="547" height="285" viewBox="0 0 547 285" fill="none" xmlns="http://www.w3.org/2000/svg">
<path d="M269.081 60.1796C268.243 57.0094 266.393 54.1994 263.81 52.1774C261.228 50.1555 258.055 49.0323 254.775 48.9788C249.35 49.4282 244.201 51.5594 240.047 55.0748C235.383 58.7894 231.083 62.9381 227.204 67.4651C227.127 67.5468 227.026 67.6016 226.916 67.6214C226.805 67.6411 226.692 67.6247 226.591 67.5745C226.491 67.5244 226.41 67.4433 226.359 67.3432C226.309 67.2431 226.292 67.1294 226.311 67.019C227.799 59.907 228.32 52.1507 224.948 46.4512C223.331 44.133 221.017 42.3905 218.342 41.4769C215.666 40.5633 212.769 40.5263 210.071 41.3712C204.324 43.1274 199.028 46.1123 194.55 50.1187C189.079 54.7483 183.95 59.767 179.203 65.1357C179.134 65.2277 179.031 65.2886 178.917 65.3048C178.803 65.3211 178.688 65.2915 178.596 65.2225C178.504 65.1534 178.443 65.0507 178.426 64.9369C178.41 64.823 178.44 64.7073 178.509 64.6153C183.468 50.8869 185.947 36.9107 182.972 24.5452C181.999 20.9163 180.495 17.451 178.509 14.2612C177.988 13.5674 176.823 11.9319 176.277 11.238C174.734 9.30645 172.989 7.54529 171.071 5.98453C170.5 5.56326 169.682 4.79506 169.087 4.42335C164.635 1.5996 159.483 0.0721226 154.211 0.0124122C145.532 -0.121427 136.869 0.827564 128.425 2.8374C112.305 6.43711 96.5395 11.4711 81.317 17.8792C61.6555 26.1063 -5.13904 55.7191 0.315602 80.9953C1.07441 84.04 2.68218 86.807 4.95205 88.9746C6.67429 90.4761 8.49671 91.8587 10.4067 93.113C10.9874 93.5551 11.6007 93.9528 12.2414 94.3024L15.9853 96.5327L19.8283 98.4408C51.3165 109.617 79.7798 105.379 106.607 93.4847C120.69 87.0665 138.591 76.6587 146.277 62.732C146.606 62.2687 146.737 61.6938 146.641 61.1338C146.546 60.5738 146.232 60.0746 145.769 59.7459C145.305 59.4173 144.73 59.2862 144.169 59.3815C143.609 59.4768 143.11 59.7906 142.781 60.254C137.374 65.824 131.051 70.4256 124.086 73.8585C112.509 79.9492 100.305 84.7683 87.689 88.2312C66.9118 93.7821 44.1759 96.9292 23.4482 89.718L19.8283 88.5038C17.9192 87.6117 -0.00671761 78.319 14.8696 63.971C38.87 41.0738 76.1351 27.5684 107.326 16.6402C138.516 5.71194 156.715 12.1053 160.632 15.0047C163.196 17.0489 165.336 19.5743 166.93 22.4388C175.682 38.7692 165.319 61.939 158.227 77.972C144.393 106.965 126.838 134.001 110.127 161.606V161.829C109.825 162.282 109.614 162.789 109.507 163.323C109.401 163.857 109.4 164.406 109.506 164.94C109.612 165.474 109.822 165.982 110.125 166.434C110.427 166.887 110.815 167.276 111.268 167.579C111.721 167.881 112.228 168.092 112.762 168.198C113.296 168.305 113.846 168.305 114.38 168.199C114.914 168.093 115.422 167.883 115.875 167.581C116.328 167.279 116.717 166.891 117.02 166.439C129.715 148.621 142.211 130.854 153.715 112.219C155.723 108.873 157.88 105.28 160.112 101.489C167.427 88.8728 176.225 77.176 186.319 66.6473C196.236 56.413 205.559 49.3009 213.121 48.1363C224.824 47.3185 217.063 68.5307 214.807 74.701C211.522 83.0689 207.678 91.207 203.303 99.0603C196.435 109.319 189.964 119.851 183.641 130.532V130.656C183.641 130.804 183.468 130.953 183.368 131.077C182.799 132.001 182.422 133.031 182.259 134.105C182.097 135.179 182.153 136.274 182.423 137.326C182.694 138.377 183.174 139.364 183.835 140.226C184.496 141.087 185.324 141.807 186.269 142.342C187.214 142.877 188.258 143.216 189.338 143.339C190.417 143.462 191.51 143.366 192.552 143.057C193.593 142.748 194.562 142.232 195.399 141.54C196.237 140.849 196.926 139.995 197.427 139.031L197.65 138.585C207.206 118.726 218.41 99.7023 231.146 81.7139C234.716 76.7578 254.254 50.0939 260.056 61.8895C261.94 65.7057 259.262 72.7929 258.023 77.1543C256.56 82.1104 254.527 87.2152 252.543 92.2952C250.56 97.3752 248.502 102.505 246.345 107.634C238.907 125.303 229.782 143.814 222.543 161.606C218.6 172.089 211.385 192.756 222.964 200.512C224.898 201.602 229.882 203.585 230.254 199.992C230.26 199.717 230.212 199.444 230.111 199.189C230.011 198.934 229.86 198.701 229.669 198.505C229.477 198.309 229.248 198.153 228.995 198.046C228.742 197.94 228.47 197.885 228.196 197.885C228.196 197.885 228.047 197.885 227.948 197.885C227.566 197.804 227.193 197.688 226.832 197.538C215.476 191.591 229.311 165.745 233.452 157.369C240.89 142.798 249.593 127.137 256.609 112.318C261.942 102.017 265.925 91.0736 268.461 79.7563C269.651 73.1151 270.866 67.0438 269.081 60.1796Z" fill="white"/>
<path d="M381.344 68.2094C387.022 68.2094 400.782 68.5315 405.195 67.5899C405.654 67.5192 406.08 67.3106 406.416 66.9918C406.753 66.673 406.984 66.2593 407.08 65.8057C407.278 64.641 406.559 64.418 405.394 64.3188C399.84 63.8728 387.641 64.3188 382.559 63.8976C384.294 57.182 388.509 48.385 389.823 41.9172C390.344 39.4392 385.112 36.9611 384.17 39.2657C382.137 44.2218 381.691 45.3865 379.41 51.5073C378.046 55.2492 376.583 58.6441 374.451 63.8976C373.534 63.8976 361.484 63.8976 359.575 63.8976C363.567 53.0933 369.145 40.8021 372.443 30.5925C372.79 29.5517 369.963 27.8419 368.996 27.4206C368.474 27.2078 367.888 27.2109 367.367 27.4292C366.847 27.6475 366.434 28.0633 366.22 28.5853C361.757 39.2409 355.806 53.3658 351.12 63.8976C330.417 63.5259 305.028 63.1542 284.821 62.8072C284.256 62.8072 283.714 63.0318 283.314 63.4314C282.914 63.8311 282.689 64.3732 282.689 64.9384C282.689 65.5036 282.914 66.0456 283.314 66.4453C283.714 66.845 284.256 67.0695 284.821 67.0695C284.821 67.0695 338.004 67.3669 349.285 67.9368C344.327 78.6172 339.368 89.3224 334.037 99.7551C329.379 109.582 324.198 119.153 318.516 128.426C307.657 144.806 302.599 136.356 306.268 117.077C306.434 116.542 306.399 115.966 306.171 115.456C305.943 114.945 305.537 114.535 305.028 114.301C303.962 113.88 303.268 114.301 302.549 115.342C302.276 115.739 301.632 116.804 301.632 116.804C297.987 122.082 295.954 124.709 294.888 126.171C290.078 132.317 286.954 135.836 281.871 138.016C276.788 140.197 274.73 138.487 273.466 136.678C269.35 130.681 273.813 115.838 275.945 110.906C278.377 105.435 281.846 100.487 286.16 96.3353C288.175 94.5154 290.811 93.5349 293.526 93.5948C296.241 93.6547 298.831 94.7505 300.764 96.6575C303.69 99.8294 303.937 105.132 305.177 107.214C305.275 107.405 305.425 107.564 305.609 107.673C305.793 107.783 306.004 107.838 306.219 107.834C306.367 107.834 306.514 107.804 306.651 107.746C306.788 107.689 306.912 107.604 307.016 107.498C307.12 107.392 307.202 107.266 307.257 107.128C307.311 106.99 307.338 106.842 307.334 106.694C307.318 103.644 306.892 100.61 306.07 97.6735C305.628 95.5105 304.717 93.4706 303.401 91.6979C302.084 89.9251 300.395 88.4626 298.451 87.4134C296.508 86.3642 294.358 85.754 292.153 85.6257C289.948 85.4974 287.741 85.8542 285.689 86.6709C280.879 88.4551 274.954 93.9812 271.234 98.6151C266.028 105.383 262.257 113.14 260.152 121.413C258.49 127.732 257.672 140.346 266.573 146.615C275.474 152.885 284.97 146.219 290.97 139.181C293.896 135.579 296.627 131.823 299.152 127.931C299.196 127.878 299.254 127.841 299.32 127.824C299.386 127.807 299.455 127.811 299.518 127.836C299.581 127.861 299.635 127.905 299.672 127.962C299.709 128.019 299.726 128.086 299.723 128.154C299.375 131.102 298.582 136.852 299.723 139.974C300.116 141.196 300.757 142.323 301.607 143.285C302.456 144.248 303.496 145.024 304.66 145.566C305.823 146.109 307.087 146.404 308.371 146.436C309.654 146.467 310.931 146.233 312.119 145.748C323.078 141.882 335.054 113.335 336.417 110.634C336.69 109.841 337.855 109.89 337.335 111.253C333.021 122.504 326.202 139.875 322.458 151.323C318.045 164.779 312.962 175.385 309.194 189.089C308.524 191.567 314.351 192.732 315.343 190.378C332.847 149.341 344.723 111.501 357.641 70.9848C357.864 70.2414 358.385 69.0767 358.608 68.3333C361.385 68.3333 369.939 68.3333 372.716 68.3333C364.038 93.1139 353.104 120.075 345.442 145.153C341.897 156.701 336.269 174.518 333.591 186.338C333.045 188.94 339.368 190.031 340.112 187.602C352.062 148.771 366.443 112.021 381.344 68.2094Z" fill="white"/>
<path d="M415.789 90.313C414.698 89.9165 412.814 89.1731 411.773 91.7999C406.814 103.496 401.855 115.366 393.152 124.585C391.268 126.418 386.929 130.879 384.251 131.523C384.007 131.577 383.753 131.58 383.507 131.532C383.261 131.484 383.028 131.386 382.821 131.245C382.614 131.103 382.438 130.92 382.305 130.708C382.172 130.496 382.083 130.259 382.045 130.011C381.897 128.561 381.897 127.1 382.045 125.65C383.334 115.465 388.268 104.264 391.541 94.2284C391.858 93.2483 391.81 92.1865 391.404 91.2394C390.999 90.2923 390.264 89.524 389.335 89.0767C388.407 88.6293 387.348 88.5332 386.354 88.806C385.36 89.0789 384.499 89.7023 383.929 90.5608C377.557 101.539 369.673 118.29 371.359 131.275C371.613 133.233 372.309 135.108 373.394 136.758C374.48 138.408 375.926 139.789 377.624 140.799C379.321 141.809 381.226 142.419 383.195 142.585C385.163 142.751 387.144 142.468 388.987 141.757C394.051 139.688 398.287 136.002 401.037 131.275C401.083 131.173 401.168 131.094 401.272 131.054C401.377 131.015 401.493 131.019 401.595 131.065C401.697 131.111 401.776 131.195 401.816 131.3C401.855 131.404 401.851 131.52 401.805 131.622C396.648 150.703 391.491 170.453 387.128 186.437C379.342 215.802 368.879 245.266 360.425 274.631C359.83 276.514 359.21 278.447 358.59 280.033C358.245 280.747 358.195 281.568 358.45 282.319C358.705 283.07 359.245 283.691 359.953 284.047C360.664 284.401 361.485 284.458 362.238 284.207C362.991 283.957 363.614 283.418 363.97 282.709C365.739 278.85 367.271 274.886 368.557 270.839C377.433 243.606 386.78 215.802 394.219 188.271C402.177 156.527 410.607 124.907 417.252 92.8406C417.382 92.3121 417.303 91.7536 417.03 91.2824C416.757 90.8111 416.313 90.4638 415.789 90.313Z" fill="white"/>
<path d="M453.101 87.6617C451.885 85.6341 450.113 83.9968 447.995 82.9429C445.878 81.8891 443.503 81.4628 441.151 81.7144C438.291 81.657 435.491 82.5264 433.167 84.1924C431.79 85.2788 430.707 86.6932 430.018 88.306C429.158 90.4079 428.818 92.686 429.026 94.9472C429.448 99.036 433.365 104.587 435.944 109.369C437.704 112.591 445.49 121.19 437.159 125.526C432.993 127.707 427.241 122.85 425.654 119.728C424.34 117.25 423.993 114.623 422.902 114.35C420.274 113.657 420.274 119.108 420.621 122.082C422.754 130.829 427.316 134.2 434.035 134.472C436.228 134.622 438.429 134.327 440.506 133.605C453.448 128.946 450.151 112.269 442.118 100.473C440.903 98.6891 436.812 90.1646 441.87 88.3804C447.448 86.3979 450.349 94.6746 450.944 100.176C450.951 100.4 451.022 100.618 451.15 100.802C451.278 100.987 451.456 101.131 451.663 101.217C451.8 101.272 451.946 101.299 452.093 101.297C452.24 101.294 452.385 101.262 452.52 101.201C452.654 101.141 452.775 101.054 452.875 100.946C452.975 100.838 453.052 100.711 453.101 100.572C453.885 98.612 454.337 96.5353 454.44 94.4268C454.599 92.0932 454.137 89.7592 453.101 87.6617Z" fill="white"/>
<path d="M421.195 86.0513C421.676 86.4382 422.29 86.6189 422.904 86.5539C423.517 86.4889 424.08 86.1834 424.468 85.7044C426.763 83.0293 428.243 79.7528 428.733 76.263C429.252 74.3235 429.345 72.2945 429.005 70.3157C428.834 69.5336 428.397 68.835 427.769 68.3382C427.141 67.8413 426.36 67.5769 425.559 67.5898C424.195 67.5898 423.476 68.4571 423.501 70.5883C423.501 74.0575 424.716 75.9904 423.154 79.8314C422.212 82.136 420.997 82.3095 420.476 83.4494C420.33 83.6611 420.232 83.9024 420.189 84.1562C420.146 84.41 420.159 84.6701 420.228 84.9183C420.296 85.1664 420.418 85.3965 420.586 85.5922C420.753 85.788 420.961 85.9447 421.195 86.0513Z" fill="white"/>
<path d="M419.012 147.085C415.342 147.085 413.656 149.787 413.656 155.61C413.656 161.433 415.317 164.308 418.863 164.308C422.408 164.308 424.119 161.656 424.119 155.833C424.119 150.01 422.483 147.085 419.012 147.085ZM419.012 161.334C417.747 161.334 417.4 160.145 417.4 155.734C417.4 151.323 417.722 150.084 419.037 150.084C420.351 150.084 420.574 151.273 420.574 155.486C420.499 160.368 420.251 161.334 419.012 161.334Z" fill="white"/>
<path d="M429.618 147.333H426.172V164.06H433.858V160.963H429.618V147.333Z" fill="white"/>
<path d="M443.14 148.623C441.747 147.65 440.039 147.234 438.355 147.458H435.156V164.185H439.644C440.846 164.26 442.033 163.88 442.966 163.119C443.898 162.136 444.602 160.961 445.031 159.677C445.459 158.393 445.601 157.03 445.446 155.685C445.6 154.411 445.474 153.119 445.075 151.899C444.677 150.679 444.016 149.561 443.14 148.623ZM441.33 160.443C441.124 160.69 440.86 160.883 440.561 161.004C440.263 161.125 439.939 161.171 439.619 161.137H438.603V150.258H439.619C439.954 150.228 440.291 150.291 440.593 150.44C440.894 150.589 441.149 150.817 441.33 151.101C441.82 152.594 442.022 154.166 441.925 155.735C442.089 157.329 441.885 158.94 441.33 160.443Z" fill="white"/>
<path d="M451.637 156.403H447.422V159.055H451.637V156.403Z" fill="white"/>
<path d="M457.243 150.282H462.028V147.333H453.797V164.06H457.243V157.394H460.913V154.619H457.243V150.282Z" fill="white"/>
<path d="M465.102 147.333L461.16 164.06H464.235L464.904 160.442H468.202L468.896 164.06H472.342L468.598 147.333H465.102ZM465.35 157.741L466.268 153.132C466.416 152.339 466.516 151.571 466.664 150.481C466.689 151.423 466.806 152.361 467.012 153.281L467.929 157.741H465.35Z" fill="white"/>
<path d="M479.382 154.322C478.556 154.02 477.772 153.612 477.051 153.107C476.842 152.945 476.676 152.733 476.567 152.491C476.459 152.249 476.413 151.984 476.432 151.72C476.402 151.514 476.419 151.304 476.479 151.106C476.54 150.907 476.644 150.725 476.784 150.571C476.924 150.417 477.096 150.296 477.288 150.216C477.48 150.136 477.687 150.1 477.894 150.109C478.837 150.109 479.432 150.728 479.754 152.067L482.357 150.952C482.19 149.866 481.637 148.877 480.799 148.167C479.96 147.457 478.894 147.073 477.795 147.086C477.155 147.107 476.527 147.258 475.947 147.529C475.367 147.8 474.848 148.186 474.422 148.663C473.996 149.14 473.67 149.699 473.466 150.305C473.262 150.911 473.182 151.553 473.233 152.191C473.206 153.214 473.496 154.221 474.064 155.073C474.632 155.925 475.451 156.58 476.407 156.948C478.39 157.915 478.39 157.915 478.713 158.212C478.884 158.39 479.018 158.599 479.107 158.829C479.197 159.059 479.24 159.304 479.233 159.55C479.255 159.778 479.227 160.008 479.152 160.225C479.078 160.441 478.958 160.639 478.801 160.806C478.644 160.972 478.453 161.103 478.241 161.19C478.029 161.277 477.801 161.318 477.572 161.31C476.357 161.31 475.762 160.641 475.365 158.832L472.613 159.773C473.184 162.821 474.77 164.283 477.572 164.283C478.251 164.285 478.924 164.147 479.547 163.878C480.171 163.609 480.733 163.215 481.197 162.72C481.662 162.225 482.021 161.64 482.25 161.001C482.479 160.362 482.575 159.683 482.531 159.005C482.579 157.99 482.298 156.987 481.731 156.143C481.164 155.3 480.34 154.661 479.382 154.322Z" fill="white"/>
<path d="M490.117 153.925H487.564V147.333H484.117V164.06H487.564V156.874H490.117V164.06H493.539V147.333H490.117V153.925Z" fill="white"/>
<path d="M499.517 147.333H496.07V164.036H499.517V147.333Z" fill="white"/>
<path d="M506.85 147.085C503.205 147.085 501.52 149.787 501.52 155.61C501.52 161.433 503.181 164.308 506.701 164.308C510.222 164.308 511.983 161.656 511.983 155.833C511.983 150.01 510.321 147.085 506.85 147.085ZM506.85 161.334C505.61 161.334 505.263 160.145 505.263 155.734C505.263 151.323 505.586 150.084 506.875 150.084C508.164 150.084 508.437 151.273 508.437 155.486C508.263 160.368 508.09 161.334 506.751 161.334H506.85Z" fill="white"/>
<path d="M520.664 153.231C520.664 154.371 520.813 156.923 520.937 158.187C520.54 156.403 520.342 155.709 520.119 154.916L517.391 147.234H514.02V163.961H516.821V157.022C516.821 156.353 516.672 153.677 516.548 152.066C516.795 153.226 517.118 154.369 517.515 155.486L520.664 164.06H523.466V147.333H520.664V153.231Z" fill="white"/>
<path d="M525.969 164.06H534.696V161.136H529.39V156.948H533.456V154.148H529.39V150.282H534.696V147.333H525.969V164.06Z" fill="white"/>
<path d="M544.215 148.622C542.82 147.654 541.115 147.239 539.43 147.457H536.207V164.184H540.695C541.903 164.249 543.094 163.87 544.042 163.119C544.968 162.132 545.669 160.957 546.097 159.673C546.525 158.39 546.67 157.029 546.521 155.685C546.671 154.411 546.542 153.12 546.144 151.901C545.746 150.681 545.088 149.563 544.215 148.622ZM542.282 160.566C542.08 160.819 541.817 161.016 541.517 161.137C541.217 161.259 540.891 161.301 540.571 161.26H539.579V150.258H540.571C540.914 150.212 541.264 150.268 541.576 150.417C541.889 150.567 542.151 150.804 542.331 151.1C542.822 152.593 543.024 154.166 542.926 155.734C543.074 157.332 542.853 158.943 542.282 160.442V160.566Z" fill="white"/>
<path d="M470.004 92.3944C471.827 92.4042 473.611 91.8727 475.131 90.8674C476.651 89.8621 477.837 88.4282 478.54 86.7478C479.243 85.0673 479.431 83.2159 479.08 81.4286C478.729 79.6413 477.854 77.9986 476.567 76.7089C475.28 75.4191 473.639 74.5406 471.852 74.1846C470.064 73.8286 468.211 74.0113 466.528 74.7095C464.845 75.4077 463.407 76.5898 462.397 78.106C461.387 79.6222 460.851 81.4041 460.856 83.2256C460.868 85.649 461.836 87.9699 463.548 89.6858C465.26 91.4018 467.58 92.3749 470.004 92.3944ZM470.153 76.0888C471.57 76.0691 472.96 76.4709 474.147 77.243C475.334 78.0152 476.265 79.1228 476.821 80.425C477.376 81.7273 477.532 83.1653 477.268 84.5561C477.003 85.947 476.331 87.2279 475.337 88.2359C474.342 89.244 473.07 89.9336 471.682 90.2171C470.295 90.5006 468.854 90.3652 467.543 89.8281C466.233 89.2909 465.111 88.3764 464.322 87.2007C463.533 86.025 463.112 84.6413 463.112 83.2256C463.105 82.2948 463.282 81.372 463.632 80.5096C463.983 79.6472 464.5 78.8623 465.154 78.1996C465.807 77.5368 466.585 77.0093 467.443 76.6472C468.301 76.285 469.222 76.0952 470.153 76.0888Z" fill="white"/>
<path d="M469.437 84.4899H469.858L471.147 88.554H473.875L472.189 83.9696C472.663 83.6778 473.046 83.2576 473.292 82.7577C473.537 82.2577 473.636 81.6984 473.577 81.1446C473.602 80.6865 473.528 80.2285 473.361 79.8011C473.195 79.3738 472.939 78.9869 472.61 78.6665C472.015 78.0966 471.47 77.9727 469.932 77.9727H466.883V88.6035H469.362L469.437 84.4899ZM469.437 79.8312H469.932C470.627 79.8312 470.974 80.2277 470.974 81.1446C470.974 82.0615 470.627 82.4827 469.932 82.4827H469.437V79.8312Z" fill="white"/>
</svg>
